<svg width="31" height="37" viewBox="0 0 31 37" fill="none" xmlns="http://www.w3.org/2000/svg">
<path d="M28.752 25.0373L21.7037 21.1997L21.6843 21.1888C21.3184 20.9987 20.9192 20.9224 20.5229 20.9668C20.1266 21.0112 19.7457 21.175 19.4146 21.4433C19.3757 21.4746 19.3382 21.5086 19.3024 21.5451L15.6608 25.3173C13.3538 23.9557 10.9719 21.0834 9.85131 18.3165L12.9603 13.8245C12.9902 13.779 13.0186 13.7336 13.0456 13.6845C13.2617 13.2833 13.3928 12.8234 13.4272 12.3458C13.4617 11.8681 13.3984 11.3875 13.2431 10.9467V10.9249L10.0757 2.34621C9.87037 1.77042 9.51726 1.29076 9.06911 0.978851C8.62096 0.666941 8.1018 0.539504 7.58915 0.615563C5.56183 0.939709 3.70095 2.14946 2.35406 4.01886C1.00716 5.88827 0.266368 8.28948 0.270033 10.774C0.270033 25.2082 9.93509 36.9519 21.8144 36.9519C23.8592 36.9564 25.8354 36.0563 27.374 34.4197C28.9125 32.7831 29.9081 30.522 30.1749 28.0587C30.2376 27.436 30.1329 26.8054 29.8765 26.2609C29.6201 25.7164 29.2256 25.2872 28.752 25.0373ZM21.8144 34.0433C16.7371 34.0365 11.8693 31.5828 8.27906 27.2204C4.68883 22.8581 2.6694 16.9434 2.66386 10.774C2.65823 8.99883 3.18459 7.28183 4.14464 5.94368C5.10469 4.60554 6.43279 3.73776 7.8809 3.5024C7.8803 3.50966 7.8803 3.51696 7.8809 3.52422L11.0228 12.0684L7.93027 16.5659C7.89888 16.6098 7.87036 16.6566 7.84499 16.7059C7.61984 17.1257 7.48776 17.609 7.46155 18.109C7.43534 18.6091 7.51588 19.1089 7.69537 19.56C9.05088 22.9286 11.8442 26.2972 14.6464 27.9424C15.0204 28.1584 15.4341 28.2529 15.8472 28.2166C16.2602 28.1803 16.6584 28.0144 17.0029 27.7351C17.0413 27.7037 17.0782 27.6697 17.1136 27.6333L20.7507 23.863L27.7825 27.6897H27.799C27.6077 29.4517 26.8945 31.0687 25.7931 32.2381C24.6916 33.4075 23.2772 34.0493 21.8144 34.0433Z" fill="white"/>
</svg>
