<svg width="309" height="68" viewBox="0 0 309 68" fill="none" xmlns="http://www.w3.org/2000/svg">
<g clip-path="url(#clip0_1_1070)">
<path fill-rule="evenodd" clip-rule="evenodd" d="M260.307 25.2798L299.739 25.2816L292.145 17.6881L293.914 15.9193L304.527 26.5321L293.914 37.145L292.145 35.3761L299.739 27.7827L260.307 27.7844V25.2798Z" fill="#1E1E1E"/>
</g>
<path d="M57.7788 12.5653C57.7106 11.8778 57.418 11.3437 56.9009 10.9631C56.3839 10.5824 55.6822 10.392 54.7958 10.392C54.1935 10.392 53.685 10.4773 53.2702 10.6477C52.8555 10.8125 52.5373 11.0426 52.3157 11.3381C52.0998 11.6335 51.9918 11.9688 51.9918 12.3438C51.9805 12.6562 52.0458 12.929 52.1879 13.1619C52.3356 13.3949 52.5373 13.5966 52.793 13.767C53.0487 13.9318 53.3441 14.0767 53.6793 14.2017C54.0146 14.321 54.3725 14.4233 54.7532 14.5085L56.3214 14.8835C57.0827 15.054 57.7816 15.2812 58.418 15.5653C59.0543 15.8494 59.6055 16.1989 60.0714 16.6136C60.5373 17.0284 60.8981 17.517 61.1538 18.0795C61.4151 18.642 61.5487 19.2869 61.5543 20.0142C61.5487 21.0824 61.2759 22.0085 60.7362 22.7926C60.2021 23.571 59.4293 24.1761 58.418 24.608C57.4123 25.0341 56.1992 25.2472 54.7788 25.2472C53.3697 25.2472 52.1424 25.0312 51.0969 24.5994C50.0572 24.1676 49.2447 23.5284 48.6594 22.6818C48.0799 21.8295 47.7759 20.7756 47.7475 19.5199H51.3185C51.3583 20.1051 51.5259 20.5937 51.8214 20.9858C52.1225 21.3722 52.5231 21.6648 53.0231 21.8636C53.5288 22.0568 54.0998 22.1534 54.7362 22.1534C55.3612 22.1534 55.9038 22.0625 56.364 21.8807C56.8299 21.6989 57.1907 21.446 57.4464 21.1222C57.7021 20.7983 57.8299 20.4261 57.8299 20.0057C57.8299 19.6136 57.7134 19.2841 57.4805 19.017C57.2532 18.75 56.918 18.5227 56.4748 18.3352C56.0373 18.1477 55.5004 17.9773 54.864 17.8239L52.9634 17.3466C51.4918 16.9886 50.3299 16.429 49.4776 15.6676C48.6254 14.9062 48.2021 13.8807 48.2077 12.5909C48.2021 11.5341 48.4833 10.6108 49.0515 9.82102C49.6254 9.03125 50.4123 8.41477 51.4123 7.97159C52.4123 7.52841 53.5487 7.30682 54.8214 7.30682C56.1168 7.30682 57.2475 7.52841 58.2134 7.97159C59.185 8.41477 59.9407 9.03125 60.4805 9.82102C61.0202 10.6108 61.2987 11.5256 61.3157 12.5653H57.7788ZM69.8832 25.2557C68.5423 25.2557 67.3888 24.9716 66.4229 24.4034C65.4627 23.8295 64.7241 23.0341 64.207 22.017C63.6957 21 63.44 19.8295 63.44 18.5057C63.44 17.1648 63.6985 15.9886 64.2156 14.9773C64.7383 13.9602 65.4798 13.1676 66.44 12.5994C67.4002 12.0256 68.5423 11.7386 69.8661 11.7386C71.0082 11.7386 72.0082 11.946 72.8661 12.3608C73.7241 12.7756 74.4031 13.358 74.9031 14.108C75.4031 14.858 75.6786 15.7386 75.7298 16.75H72.3036C72.207 16.0966 71.9513 15.571 71.5366 15.1733C71.1275 14.7699 70.5906 14.5682 69.9258 14.5682C69.3633 14.5682 68.8718 14.7216 68.4513 15.0284C68.0366 15.3295 67.7127 15.7699 67.4798 16.3494C67.2468 16.929 67.1303 17.6307 67.1303 18.4545C67.1303 19.2898 67.244 20 67.4712 20.5852C67.7042 21.1705 68.0309 21.6165 68.4513 21.9233C68.8718 22.2301 69.3633 22.3835 69.9258 22.3835C70.3406 22.3835 70.7127 22.2983 71.0423 22.1278C71.3775 21.9574 71.6531 21.7102 71.869 21.3864C72.0906 21.0568 72.2354 20.6619 72.3036 20.2017H75.7298C75.6729 21.2017 75.4002 22.0824 74.9116 22.8438C74.4286 23.5994 73.761 24.1903 72.9087 24.6165C72.0565 25.0426 71.0479 25.2557 69.8832 25.2557ZM81.685 17.4318V25H78.0543V7.54545H81.5827V14.2188H81.7362C82.0316 13.446 82.5089 12.8409 83.168 12.4034C83.8271 11.9602 84.6538 11.7386 85.6481 11.7386C86.5572 11.7386 87.3498 11.9375 88.0259 12.3352C88.7077 12.7273 89.2362 13.2926 89.6112 14.0312C89.9918 14.7642 90.1793 15.642 90.1737 16.6648V25H86.543V17.3125C86.5487 16.5057 86.3441 15.8778 85.9293 15.429C85.5202 14.9801 84.9464 14.7557 84.2077 14.7557C83.7134 14.7557 83.2759 14.8608 82.8952 15.071C82.5202 15.2812 82.2248 15.5881 82.0089 15.9915C81.7987 16.3892 81.6907 16.8693 81.685 17.4318ZM98.9968 25.2557C97.6502 25.2557 96.4911 24.983 95.5195 24.4375C94.5536 23.8864 93.8093 23.108 93.2866 22.1023C92.7638 21.0909 92.5025 19.8949 92.5025 18.5142C92.5025 17.1676 92.7638 15.9858 93.2866 14.9688C93.8093 13.9517 94.5451 13.1591 95.494 12.5909C96.4485 12.0227 97.5678 11.7386 98.8519 11.7386C99.7156 11.7386 100.52 11.8778 101.264 12.1562C102.014 12.429 102.667 12.8409 103.224 13.392C103.787 13.9432 104.224 14.6364 104.537 15.4716C104.849 16.3011 105.005 17.2727 105.005 18.3864V19.3835H93.9513V17.1335H101.588C101.588 16.6108 101.474 16.1477 101.247 15.7443C101.02 15.3409 100.704 15.0256 100.301 14.7983C99.9031 14.5653 99.44 14.4489 98.9116 14.4489C98.3604 14.4489 97.8718 14.5767 97.4457 14.8324C97.0252 15.0824 96.6957 15.4205 96.457 15.8466C96.2184 16.267 96.0962 16.7358 96.0906 17.2528V19.392C96.0906 20.0398 96.2099 20.5994 96.4485 21.071C96.6928 21.5426 97.0366 21.9062 97.4798 22.1619C97.9229 22.4176 98.4485 22.5455 99.0565 22.5455C99.4599 22.5455 99.8292 22.4886 100.164 22.375C100.5 22.2614 100.787 22.0909 101.025 21.8636C101.264 21.6364 101.446 21.358 101.571 21.0284L104.929 21.25C104.758 22.0568 104.409 22.7614 103.88 23.3636C103.358 23.9602 102.681 24.4261 101.852 24.7614C101.028 25.0909 100.076 25.2557 98.9968 25.2557ZM112.199 25.2131C111.204 25.2131 110.304 24.9574 109.497 24.446C108.696 23.929 108.059 23.1705 107.588 22.1705C107.122 21.1648 106.889 19.9318 106.889 18.4716C106.889 16.9716 107.13 15.7244 107.613 14.7301C108.096 13.7301 108.738 12.983 109.539 12.4886C110.346 11.9886 111.23 11.7386 112.19 11.7386C112.923 11.7386 113.534 11.8636 114.022 12.1136C114.517 12.358 114.914 12.6648 115.216 13.0341C115.522 13.3977 115.755 13.7557 115.914 14.108H116.025V7.54545H119.647V25H116.068V22.9034H115.914C115.744 23.267 115.502 23.6278 115.19 23.9858C114.883 24.3381 114.483 24.6307 113.988 24.8636C113.5 25.0966 112.903 25.2131 112.199 25.2131ZM113.349 22.3239C113.934 22.3239 114.429 22.1648 114.832 21.8466C115.241 21.5227 115.554 21.071 115.77 20.4915C115.991 19.9119 116.102 19.233 116.102 18.4545C116.102 17.6761 115.994 17 115.778 16.4261C115.562 15.8523 115.25 15.4091 114.841 15.0966C114.431 14.7841 113.934 14.6278 113.349 14.6278C112.752 14.6278 112.25 14.7898 111.841 15.1136C111.431 15.4375 111.122 15.8864 110.912 16.4602C110.701 17.0341 110.596 17.6989 110.596 18.4545C110.596 19.2159 110.701 19.8892 110.912 20.4744C111.127 21.054 111.437 21.5085 111.841 21.8381C112.25 22.1619 112.752 22.3239 113.349 22.3239ZM131.027 19.4261V11.9091H134.658V25H131.172V22.6222H131.036C130.74 23.3892 130.249 24.0057 129.561 24.4716C128.88 24.9375 128.047 25.1705 127.064 25.1705C126.189 25.1705 125.419 24.9716 124.755 24.5739C124.09 24.1761 123.57 23.6108 123.195 22.8778C122.826 22.1449 122.638 21.267 122.632 20.2443V11.9091H126.263V19.5966C126.269 20.3693 126.476 20.9801 126.885 21.429C127.294 21.8778 127.843 22.1023 128.53 22.1023C128.968 22.1023 129.377 22.0028 129.757 21.804C130.138 21.5994 130.445 21.2983 130.678 20.9006C130.917 20.5028 131.033 20.0114 131.027 19.4261ZM141.193 7.54545V25H137.562V7.54545H141.193ZM150.067 25.2557C148.721 25.2557 147.561 24.983 146.59 24.4375C145.624 23.8864 144.88 23.108 144.357 22.1023C143.834 21.0909 143.573 19.8949 143.573 18.5142C143.573 17.1676 143.834 15.9858 144.357 14.9688C144.88 13.9517 145.615 13.1591 146.564 12.5909C147.519 12.0227 148.638 11.7386 149.922 11.7386C150.786 11.7386 151.59 11.8778 152.334 12.1562C153.084 12.429 153.738 12.8409 154.294 13.392C154.857 13.9432 155.294 14.6364 155.607 15.4716C155.919 16.3011 156.076 17.2727 156.076 18.3864V19.3835H145.022V17.1335H152.658C152.658 16.6108 152.544 16.1477 152.317 15.7443C152.09 15.3409 151.775 15.0256 151.371 14.7983C150.973 14.5653 150.51 14.4489 149.982 14.4489C149.431 14.4489 148.942 14.5767 148.516 14.8324C148.096 15.0824 147.766 15.4205 147.527 15.8466C147.289 16.267 147.167 16.7358 147.161 17.2528V19.392C147.161 20.0398 147.28 20.5994 147.519 21.071C147.763 21.5426 148.107 21.9062 148.55 22.1619C148.993 22.4176 149.519 22.5455 150.127 22.5455C150.53 22.5455 150.9 22.4886 151.235 22.375C151.57 22.2614 151.857 22.0909 152.096 21.8636C152.334 21.6364 152.516 21.358 152.641 21.0284L155.999 21.25C155.828 22.0568 155.479 22.7614 154.951 23.3636C154.428 23.9602 153.752 24.4261 152.922 24.7614C152.098 25.0909 151.147 25.2557 150.067 25.2557ZM167.733 25.2472C166.897 25.2472 166.153 25.1023 165.5 24.8125C164.846 24.517 164.329 24.0824 163.949 23.5085C163.574 22.929 163.386 22.2074 163.386 21.3438C163.386 20.6165 163.52 20.0057 163.787 19.5114C164.054 19.017 164.417 18.6193 164.877 18.3182C165.338 18.017 165.86 17.7898 166.446 17.6364C167.037 17.483 167.656 17.375 168.304 17.3125C169.065 17.233 169.679 17.1591 170.145 17.0909C170.61 17.017 170.949 16.9091 171.159 16.767C171.369 16.625 171.474 16.4148 171.474 16.1364V16.0852C171.474 15.5455 171.304 15.1278 170.963 14.8324C170.627 14.5369 170.15 14.3892 169.531 14.3892C168.877 14.3892 168.358 14.5341 167.971 14.8239C167.585 15.108 167.329 15.4659 167.204 15.8977L163.846 15.625C164.017 14.8295 164.352 14.142 164.852 13.5625C165.352 12.9773 165.997 12.5284 166.787 12.2159C167.582 11.8977 168.502 11.7386 169.548 11.7386C170.275 11.7386 170.971 11.8239 171.636 11.9943C172.306 12.1648 172.9 12.429 173.417 12.7869C173.94 13.1449 174.352 13.6051 174.653 14.1676C174.954 14.7244 175.105 15.392 175.105 16.1705V25H171.662V23.1847H171.559C171.349 23.5938 171.068 23.9545 170.716 24.267C170.363 24.5739 169.94 24.8153 169.446 24.9915C168.951 25.1619 168.38 25.2472 167.733 25.2472ZM168.772 22.7415C169.306 22.7415 169.778 22.6364 170.187 22.4261C170.596 22.2102 170.917 21.9205 171.15 21.5568C171.383 21.1932 171.5 20.7812 171.5 20.321V18.9318C171.386 19.0057 171.23 19.0739 171.031 19.1364C170.838 19.1932 170.619 19.2472 170.375 19.2983C170.13 19.3437 169.886 19.3864 169.642 19.4261C169.397 19.4602 169.176 19.4915 168.977 19.5199C168.551 19.5824 168.179 19.6818 167.86 19.8182C167.542 19.9545 167.295 20.1392 167.119 20.3722C166.943 20.5994 166.855 20.8835 166.855 21.2244C166.855 21.7188 167.034 22.0966 167.392 22.358C167.755 22.6136 168.216 22.7415 168.772 22.7415ZM183.544 25V7.54545H195.101V10.5881H187.235V14.7472H194.334V17.7898H187.235V25H183.544ZM197.583 25V7.54545H204.47C205.788 7.54545 206.913 7.78125 207.845 8.25284C208.782 8.71875 209.495 9.38068 209.984 10.2386C210.478 11.0909 210.725 12.0937 210.725 13.2472C210.725 14.4062 210.475 15.4034 209.975 16.2386C209.475 17.0682 208.751 17.7045 207.802 18.1477C206.859 18.5909 205.717 18.8125 204.376 18.8125H199.765V15.8466H203.779C204.484 15.8466 205.069 15.75 205.535 15.5568C206.001 15.3636 206.348 15.0739 206.575 14.6875C206.808 14.3011 206.924 13.821 206.924 13.2472C206.924 12.6676 206.808 12.179 206.575 11.7812C206.348 11.3835 205.998 11.0824 205.527 10.8778C205.061 10.6676 204.473 10.5625 203.762 10.5625H201.274V25H197.583ZM207.01 17.0568L211.348 25H207.274L203.029 17.0568H207.01ZM213.333 25V7.54545H225.095V10.5881H217.024V14.7472H224.49V17.7898H217.024V21.9574H225.129V25H213.333ZM228.029 25V7.54545H239.79V10.5881H231.719V14.7472H239.185V17.7898H231.719V21.9574H239.824V25H228.029ZM85.2145 44.6562H81.4815C81.4134 44.1733 81.2741 43.7443 81.0639 43.3693C80.8537 42.9886 80.5838 42.6648 80.2543 42.3977C79.9247 42.1307 79.544 41.9261 79.1122 41.7841C78.6861 41.642 78.223 41.571 77.723 41.571C76.8196 41.571 76.0327 41.7955 75.3622 42.2443C74.6918 42.6875 74.1719 43.3352 73.8026 44.1875C73.4332 45.0341 73.2486 46.0625 73.2486 47.2727C73.2486 48.517 73.4332 49.5625 73.8026 50.4091C74.1776 51.2557 74.7003 51.8949 75.3707 52.3267C76.0412 52.7585 76.8168 52.9744 77.6974 52.9744C78.1918 52.9744 78.6491 52.9091 79.0696 52.7784C79.4957 52.6477 79.8736 52.4574 80.2031 52.2074C80.5327 51.9517 80.8054 51.642 81.0213 51.2784C81.2429 50.9148 81.3963 50.5 81.4815 50.0341L85.2145 50.0511C85.1179 50.8523 84.8764 51.625 84.4901 52.3693C84.1094 53.108 83.5952 53.7699 82.9474 54.3551C82.3054 54.9347 81.5384 55.3949 80.6463 55.7358C79.7599 56.071 78.7571 56.2386 77.6378 56.2386C76.081 56.2386 74.6889 55.8864 73.4616 55.1818C72.2401 54.4773 71.2741 53.4574 70.5639 52.1222C69.8594 50.7869 69.5071 49.1705 69.5071 47.2727C69.5071 45.3693 69.8651 43.75 70.581 42.4148C71.2969 41.0795 72.2685 40.0625 73.4957 39.3636C74.723 38.6591 76.1037 38.3068 77.6378 38.3068C78.6491 38.3068 79.5866 38.4489 80.4503 38.733C81.3196 39.017 82.0895 39.4318 82.7599 39.9773C83.4304 40.517 83.9759 41.179 84.3963 41.9631C84.8224 42.7472 85.0952 43.6449 85.2145 44.6562ZM93.7074 56.2557C92.3835 56.2557 91.2386 55.9744 90.2727 55.4119C89.3125 54.8437 88.571 54.054 88.0483 53.0426C87.5256 52.0256 87.2642 50.8466 87.2642 49.5057C87.2642 48.1534 87.5256 46.9716 88.0483 45.9602C88.571 44.9432 89.3125 44.1534 90.2727 43.5909C91.2386 43.0227 92.3835 42.7386 93.7074 42.7386C95.0312 42.7386 96.1733 43.0227 97.1335 43.5909C98.0994 44.1534 98.8438 44.9432 99.3665 45.9602C99.8892 46.9716 100.151 48.1534 100.151 49.5057C100.151 50.8466 99.8892 52.0256 99.3665 53.0426C98.8438 54.054 98.0994 54.8437 97.1335 55.4119C96.1733 55.9744 95.0312 56.2557 93.7074 56.2557ZM93.7244 53.4432C94.3267 53.4432 94.8295 53.2727 95.233 52.9318C95.6364 52.5852 95.9403 52.1136 96.1449 51.517C96.3551 50.9205 96.4602 50.2415 96.4602 49.4801C96.4602 48.7188 96.3551 48.0398 96.1449 47.4432C95.9403 46.8466 95.6364 46.375 95.233 46.0284C94.8295 45.6818 94.3267 45.5085 93.7244 45.5085C93.1165 45.5085 92.6051 45.6818 92.1903 46.0284C91.7813 46.375 91.4716 46.8466 91.2614 47.4432C91.0568 48.0398 90.9545 48.7188 90.9545 49.4801C90.9545 50.2415 91.0568 50.9205 91.2614 51.517C91.4716 52.1136 91.7813 52.5852 92.1903 52.9318C92.6051 53.2727 93.1165 53.4432 93.7244 53.4432ZM106.142 48.4318V56H102.511V42.9091H105.972V45.2188H106.125C106.415 44.4574 106.901 43.8551 107.582 43.4119C108.264 42.9631 109.091 42.7386 110.062 42.7386C110.972 42.7386 111.764 42.9375 112.44 43.3352C113.116 43.733 113.642 44.3011 114.017 45.0398C114.392 45.7727 114.58 46.6477 114.58 47.6648V56H110.949V48.3125C110.955 47.5114 110.75 46.8864 110.335 46.4375C109.92 45.983 109.349 45.7557 108.622 45.7557C108.134 45.7557 107.702 45.8608 107.327 46.071C106.957 46.2812 106.668 46.5881 106.457 46.9915C106.253 47.3892 106.148 47.8693 106.142 48.4318ZM128.333 46.642L125.009 46.8466C124.952 46.5625 124.83 46.3068 124.643 46.0795C124.455 45.8466 124.208 45.6619 123.901 45.5256C123.6 45.3835 123.239 45.3125 122.819 45.3125C122.256 45.3125 121.782 45.4318 121.396 45.6705C121.009 45.9034 120.816 46.2159 120.816 46.608C120.816 46.9205 120.941 47.1847 121.191 47.4006C121.441 47.6165 121.87 47.7898 122.478 47.9205L124.847 48.3977C126.12 48.6591 127.069 49.0795 127.694 49.6591C128.319 50.2386 128.631 51 128.631 51.9432C128.631 52.8011 128.379 53.554 127.873 54.2017C127.373 54.8494 126.685 55.3551 125.81 55.7188C124.941 56.0767 123.938 56.2557 122.802 56.2557C121.069 56.2557 119.688 55.8949 118.66 55.1733C117.637 54.446 117.038 53.4574 116.862 52.2074L120.433 52.0199C120.54 52.5483 120.802 52.9517 121.217 53.2301C121.631 53.5028 122.163 53.6392 122.81 53.6392C123.447 53.6392 123.958 53.517 124.344 53.2727C124.737 53.0227 124.935 52.7017 124.941 52.3097C124.935 51.9801 124.796 51.7102 124.523 51.5C124.251 51.2841 123.83 51.1193 123.262 51.0057L120.995 50.554C119.717 50.2983 118.765 49.8551 118.14 49.2244C117.521 48.5937 117.211 47.7898 117.211 46.8125C117.211 45.9716 117.438 45.2472 117.893 44.6392C118.353 44.0312 118.998 43.5625 119.827 43.233C120.663 42.9034 121.64 42.7386 122.759 42.7386C124.413 42.7386 125.714 43.0881 126.663 43.7869C127.617 44.4858 128.174 45.4375 128.333 46.642ZM139.312 50.4261V42.9091H142.943V56H139.457V53.6222H139.321C139.026 54.3892 138.534 55.0057 137.847 55.4716C137.165 55.9375 136.332 56.1705 135.349 56.1705C134.474 56.1705 133.705 55.9716 133.04 55.5739C132.375 55.1761 131.855 54.6108 131.48 53.8778C131.111 53.1449 130.923 52.267 130.918 51.2443V42.9091H134.548V50.5966C134.554 51.3693 134.761 51.9801 135.17 52.429C135.58 52.8778 136.128 53.1023 136.815 53.1023C137.253 53.1023 137.662 53.0028 138.043 52.804C138.423 52.5994 138.73 52.2983 138.963 51.9006C139.202 51.5028 139.318 51.0114 139.312 50.4261ZM149.478 38.5455V56H145.847V38.5455H149.478ZM159.349 42.9091V45.6364H151.466V42.9091H159.349ZM153.256 39.7727H156.886V51.9773C156.886 52.3125 156.938 52.5739 157.04 52.7614C157.142 52.9432 157.284 53.071 157.466 53.1449C157.653 53.2187 157.869 53.2557 158.114 53.2557C158.284 53.2557 158.455 53.2415 158.625 53.2131C158.795 53.179 158.926 53.1534 159.017 53.1364L159.588 55.8381C159.406 55.8949 159.151 55.9602 158.821 56.0341C158.491 56.1136 158.091 56.1619 157.619 56.179C156.744 56.2131 155.977 56.0966 155.318 55.8295C154.665 55.5625 154.156 55.1477 153.793 54.5852C153.429 54.0227 153.25 53.3125 153.256 52.4545V39.7727ZM165.447 56.2472C164.612 56.2472 163.868 56.1023 163.214 55.8125C162.561 55.517 162.044 55.0824 161.663 54.5085C161.288 53.929 161.101 53.2074 161.101 52.3438C161.101 51.6165 161.234 51.0057 161.501 50.5114C161.768 50.017 162.132 49.6193 162.592 49.3182C163.053 49.017 163.575 48.7898 164.161 48.6364C164.751 48.483 165.371 48.375 166.018 48.3125C166.78 48.233 167.393 48.1591 167.859 48.0909C168.325 48.017 168.663 47.9091 168.874 47.767C169.084 47.625 169.189 47.4148 169.189 47.1364V47.0852C169.189 46.5455 169.018 46.1278 168.678 45.8324C168.342 45.5369 167.865 45.3892 167.246 45.3892C166.592 45.3892 166.072 45.5341 165.686 45.8239C165.3 46.108 165.044 46.4659 164.919 46.8977L161.561 46.625C161.732 45.8295 162.067 45.142 162.567 44.5625C163.067 43.9773 163.712 43.5284 164.501 43.2159C165.297 42.8977 166.217 42.7386 167.263 42.7386C167.99 42.7386 168.686 42.8239 169.351 42.9943C170.021 43.1648 170.615 43.429 171.132 43.7869C171.655 44.1449 172.067 44.6051 172.368 45.1676C172.669 45.7244 172.82 46.392 172.82 47.1705V56H169.376V54.1847H169.274C169.064 54.5938 168.783 54.9545 168.43 55.267C168.078 55.5739 167.655 55.8153 167.161 55.9915C166.666 56.1619 166.095 56.2472 165.447 56.2472ZM166.487 53.7415C167.021 53.7415 167.493 53.6364 167.902 53.4261C168.311 53.2102 168.632 52.9205 168.865 52.5568C169.098 52.1932 169.214 51.7812 169.214 51.321V49.9318C169.101 50.0057 168.945 50.0739 168.746 50.1364C168.553 50.1932 168.334 50.2472 168.089 50.2983C167.845 50.3437 167.601 50.3864 167.357 50.4261C167.112 50.4602 166.891 50.4915 166.692 50.5199C166.266 50.5824 165.893 50.6818 165.575 50.8182C165.257 50.9545 165.01 51.1392 164.834 51.3722C164.658 51.5994 164.57 51.8835 164.57 52.2244C164.57 52.7188 164.749 53.0966 165.107 53.358C165.47 53.6136 165.93 53.7415 166.487 53.7415ZM182.599 42.9091V45.6364H174.716V42.9091H182.599ZM176.506 39.7727H180.136V51.9773C180.136 52.3125 180.188 52.5739 180.29 52.7614C180.392 52.9432 180.534 53.071 180.716 53.1449C180.903 53.2187 181.119 53.2557 181.364 53.2557C181.534 53.2557 181.705 53.2415 181.875 53.2131C182.045 53.179 182.176 53.1534 182.267 53.1364L182.838 55.8381C182.656 55.8949 182.401 55.9602 182.071 56.0341C181.741 56.1136 181.341 56.1619 180.869 56.179C179.994 56.2131 179.227 56.0966 178.568 55.8295C177.915 55.5625 177.406 55.1477 177.043 54.5852C176.679 54.0227 176.5 53.3125 176.506 52.4545V39.7727ZM184.964 56V42.9091H188.595V56H184.964ZM186.788 41.2216C186.249 41.2216 185.786 41.0426 185.399 40.6847C185.018 40.321 184.828 39.8864 184.828 39.3807C184.828 38.8807 185.018 38.4517 185.399 38.0938C185.786 37.7301 186.249 37.5483 186.788 37.5483C187.328 37.5483 187.788 37.7301 188.169 38.0938C188.555 38.4517 188.749 38.8807 188.749 39.3807C188.749 39.8864 188.555 40.321 188.169 40.6847C187.788 41.0426 187.328 41.2216 186.788 41.2216ZM197.418 56.2557C196.094 56.2557 194.95 55.9744 193.984 55.4119C193.023 54.8437 192.282 54.054 191.759 53.0426C191.237 52.0256 190.975 50.8466 190.975 49.5057C190.975 48.1534 191.237 46.9716 191.759 45.9602C192.282 44.9432 193.023 44.1534 193.984 43.5909C194.95 43.0227 196.094 42.7386 197.418 42.7386C198.742 42.7386 199.884 43.0227 200.844 43.5909C201.81 44.1534 202.555 44.9432 203.077 45.9602C203.6 46.9716 203.862 48.1534 203.862 49.5057C203.862 50.8466 203.6 52.0256 203.077 53.0426C202.555 54.054 201.81 54.8437 200.844 55.4119C199.884 55.9744 198.742 56.2557 197.418 56.2557ZM197.435 53.4432C198.038 53.4432 198.54 53.2727 198.944 52.9318C199.347 52.5852 199.651 52.1136 199.856 51.517C200.066 50.9205 200.171 50.2415 200.171 49.4801C200.171 48.7188 200.066 48.0398 199.856 47.4432C199.651 46.8466 199.347 46.375 198.944 46.0284C198.54 45.6818 198.038 45.5085 197.435 45.5085C196.827 45.5085 196.316 45.6818 195.901 46.0284C195.492 46.375 195.183 46.8466 194.972 47.4432C194.768 48.0398 194.665 48.7188 194.665 49.4801C194.665 50.2415 194.768 50.9205 194.972 51.517C195.183 52.1136 195.492 52.5852 195.901 52.9318C196.316 53.2727 196.827 53.4432 197.435 53.4432ZM209.853 48.4318V56H206.222V42.9091H209.683V45.2188H209.836C210.126 44.4574 210.612 43.8551 211.293 43.4119C211.975 42.9631 212.802 42.7386 213.773 42.7386C214.683 42.7386 215.475 42.9375 216.151 43.3352C216.827 43.733 217.353 44.3011 217.728 45.0398C218.103 45.7727 218.29 46.6477 218.29 47.6648V56H214.66V48.3125C214.665 47.5114 214.461 46.8864 214.046 46.4375C213.631 45.983 213.06 45.7557 212.333 45.7557C211.844 45.7557 211.413 45.8608 211.038 46.071C210.668 46.2812 210.379 46.5881 210.168 46.9915C209.964 47.3892 209.859 47.8693 209.853 48.4318Z" fill="#1E1E1E"/>
<defs>
<clipPath id="clip0_1_1070">
<rect width="37.5221" height="37.5221" fill="white" transform="translate(255 26.5321) rotate(-45)"/>
</clipPath>
</defs>
</svg>
