<svg width="33" height="24" viewBox="0 0 33 24" fill="none" xmlns="http://www.w3.org/2000/svg">
<path d="M31.7196 4.29383C31.5378 3.60908 31.1793 2.9841 30.68 2.4815C30.1807 1.97889 29.5581 1.61629 28.8745 1.43C26.366 0.75293 16.3037 0.75293 16.3037 0.75293C16.3037 0.75293 6.24147 0.75293 3.73161 1.43C3.04838 1.61662 2.42612 1.97935 1.92707 2.48192C1.42803 2.9845 1.06969 3.6093 0.887896 4.29383C0.214844 6.81978 0.214844 12.0889 0.214844 12.0889C0.214844 12.0889 0.214844 17.358 0.887896 19.884C1.06968 20.5687 1.42818 21.1937 1.92749 21.6963C2.42681 22.1989 3.04941 22.5615 3.73295 22.7478C6.24147 23.4249 16.3037 23.4249 16.3037 23.4249C16.3037 23.4249 26.366 23.4249 28.8759 22.7478C29.5595 22.5616 30.1821 22.1991 30.6815 21.6964C31.1808 21.1938 31.5392 20.5688 31.7209 19.884C32.3926 17.358 32.3926 12.0889 32.3926 12.0889C32.3926 12.0889 32.3926 6.81978 31.7196 4.29383ZM13.0122 16.8727V7.30513L21.4227 12.0889L13.0122 16.8727Z" fill="#67222B"/>
</svg>
